<?xml version="1.0" encoding="utf-8"?>
<svg xmlns="http://www.w3.org/2000/svg"
	xmlns:xlink="http://www.w3.org/1999/xlink"
	width="35px" height="32px" viewBox="0 0 35 32">
<style type="text/css"><![CDATA[
.style0 {
  font-size: 12px;
  font-family: "Lato-Bold";
  fill: rgb(255,255,255);
}
]]></style>
<path fillRule="evenodd" d="M 31.9 10.56C 31.9 10.56 26.49 22.98 26.49 22.98 26.3 23.41 25.88 23.69 25.41 23.69 25.41 23.69 10.55 23.69 10.55 23.69 10.02 23.69 9.55 23.33 9.41 22.82 9.41 22.82 4.58 5.36 4.58 5.36 4.58 5.36 1.18 5.36 1.18 5.36 0.53 5.36-0 4.83-0 4.18-0 3.53 0.53 3 1.18 3 1.18 3 5.46 3 5.46 3 6 3 6.47 3.35 6.61 3.87 6.61 3.87 11.44 21.32 11.44 21.32 11.44 21.32 24.62 21.32 24.62 21.32 24.62 21.32 29 11.27 29 11.27 29 11.27 14.4 11.27 14.4 11.27 13.75 11.27 13.22 10.74 13.22 10.09 13.22 9.44 13.75 8.91 14.4 8.91 14.4 8.91 30.81 8.91 30.81 8.91 31.21 8.91 31.58 9.11 31.8 9.44 32.02 9.78 32.06 10.19 31.9 10.56ZM 9.43 26.64C 10.91 26.64 12.11 27.84 12.11 29.32 12.11 30.8 10.91 32 9.43 32 7.95 32 6.75 30.8 6.75 29.32 6.75 27.84 7.95 26.64 9.43 26.64ZM 26.02 26.64C 27.5 26.54 28.78 27.67 28.88 29.12 28.92 29.85 28.7 30.54 28.23 31.07 27.76 31.63 27.11 31.94 26.39 32 26.34 32 26.26 32 26.2 32 24.8 32 23.63 30.9 23.53 29.5 23.44 28.04 24.54 26.74 26.02 26.64Z" fill="rgb(33,33,33)"/><path fillRule="evenodd" d="M 31.9 10.56C 31.9 10.56 26.49 22.98 26.49 22.98 26.3 23.41 25.88 23.69 25.41 23.69 25.41 23.69 10.55 23.69 10.55 23.69 10.02 23.69 9.55 23.33 9.41 22.82 9.41 22.82 4.58 5.36 4.58 5.36 4.58 5.36 1.18 5.36 1.18 5.36 0.53 5.36-0 4.83-0 4.18-0 3.53 0.53 3 1.18 3 1.18 3 5.46 3 5.46 3 6 3 6.47 3.35 6.61 3.87 6.61 3.87 11.44 21.32 11.44 21.32 11.44 21.32 24.62 21.32 24.62 21.32 24.62 21.32 29 11.27 29 11.27 29 11.27 14.4 11.27 14.4 11.27 13.75 11.27 13.22 10.74 13.22 10.09 13.22 9.44 13.75 8.91 14.4 8.91 14.4 8.91 30.81 8.91 30.81 8.91 31.21 8.91 31.58 9.11 31.8 9.44 32.02 9.78 32.06 10.19 31.9 10.56ZM 9.43 26.64C 10.91 26.64 12.11 27.84 12.11 29.32 12.11 30.8 10.91 32 9.43 32 7.95 32 6.75 30.8 6.75 29.32 6.75 27.84 7.95 26.64 9.43 26.64ZM 26.02 26.64C 27.5 26.54 28.78 27.67 28.88 29.12 28.92 29.85 28.7 30.54 28.23 31.07 27.76 31.63 27.11 31.94 26.39 32 26.34 32 26.26 32 26.2 32 24.8 32 23.63 30.9 23.53 29.5 23.44 28.04 24.54 26.74 26.02 26.64Z"/><text transform="translate(35.00,8.00)" class="style0"><tspan x="-5.86" fill="rgb(255,255,255)"></tspan></text></svg>